<?xml version="1.0" encoding="utf-8"?>
<!-- Generator: Adobe Illustrator 22.1.0, SVG Export Plug-In . SVG Version: 6.00 Build 0)  -->
<svg version="1.1" id="Layer_1" xmlns="http://www.w3.org/2000/svg" xmlns:xlink="http://www.w3.org/1999/xlink" x="0px" y="0px"
	 viewBox="0 0 91 91" style="enable-background:new 0 0 91 91;" xml:space="preserve">
<style type="text/css">
	.st0{fill:#673A69;}
</style>
<g id="Grupo_64" transform="translate(-122.232 -1155.968)">
	<g id="Grupo_57" transform="translate(122.232 1155.968)">
		<g id="Grupo_2" transform="translate(50.988 0.38)">
			<path id="Trazado_8" class="st0" d="M0.9,6.9C-0.8,4,0.5,0,0.5,0s3.9,0.6,5.6,3.5s0.4,6.9,0.4,6.9S2.5,9.7,0.9,6.9z"/>
		</g>
		<g id="Grupo_3" transform="translate(40.488 0.878)">
			<path id="Trazado_9" class="st0" d="M0.1,5.9C-0.5,3,1.7,0,1.7,0s3.2,1.7,3.8,4.7s-1.6,5.9-1.6,5.9S0.7,8.8,0.1,5.9z"/>
		</g>
		<g id="Grupo_4" transform="translate(66.343 12.952)">
			<path id="Trazado_10" class="st0" d="M7.5,8.3c-2.4,3.2-7.3,3.4-7.3,3.4s-1-5.1,1.4-8.3C4,0.2,8.8,0,8.8,0S9.9,5.1,7.5,8.3z"/>
		</g>
		<g id="Grupo_5" transform="translate(62.559 27.502)">
			<path id="Trazado_11" class="st0" d="M0.9,8.4C-1,4.9,0.7,0,0.7,0s4.8,0.9,6.7,4.4s0.3,8.4,0.3,8.4S2.9,12,0.9,8.4z"/>
		</g>
		<g id="Grupo_6" transform="translate(77.761 29.199)">
			<path id="Trazado_12" class="st0" d="M0.1,5.2C0.8,1.9,4.3,0,4.3,0s2.4,3.3,1.8,6.6s-4.2,5.2-4.2,5.2S-0.6,8.5,0.1,5.2z"/>
		</g>
		<g id="Grupo_7" transform="translate(53.111 34.995)">
			<path id="Trazado_13" class="st0" d="M3.5,7.1C0.5,5.1,0,0.5,0,0.5s4.2-1.4,7.1,0.6s3.5,6.7,3.5,6.7S6.4,9.1,3.5,7.1z"/>
		</g>
		<g id="Grupo_8" transform="translate(67.902 40.638)">
			<path id="Trazado_14" class="st0" d="M5.2,5.2C2.9,6.4,0,5,0,5s0.7-3.3,3-4.5s5.2,0.1,5.2,0.1S7.5,4,5.2,5.2z"/>
		</g>
		<g id="Grupo_9" transform="translate(80.626 49.983)">
			<path id="Trazado_15" class="st0" d="M2.8,5.2C0.6,3.8,0,0.5,0,0.5s3-1.2,5.2,0.2S8,5.3,8,5.3S5,6.5,2.8,5.2z"/>
		</g>
		<g id="Grupo_10" transform="translate(78.714 57.482)">
			<path id="Trazado_16" class="st0" d="M5.6,5.7C3,6.7,0,4.7,0,4.7s1.2-3.5,3.9-4.5s5.6,0.9,5.6,0.9S8.3,4.7,5.6,5.7z"/>
		</g>
		<g id="Grupo_11" transform="translate(60.046 47.218)">
			<path id="Trazado_17" class="st0" d="M0.1,5.3C-0.4,2.7,1.6,0,1.6,0s2.8,1.6,3.3,4.3S3.4,9.6,3.4,9.6S0.6,7.9,0.1,5.3z"/>
		</g>
		<g id="Grupo_12" transform="translate(59.172 7.192)">
			<path id="Trazado_18" class="st0" d="M3.5,0.6c2.7-1.4,6.1,0.2,6.1,0.2S8.7,4.6,6.1,6S0,5.8,0,5.8S0.9,1.9,3.5,0.6z"/>
		</g>
		<g id="Grupo_13" transform="translate(81.953 40.673)">
			<path id="Trazado_19" class="st0" d="M5.2,0.3c2.4,0.9,3.5,4.1,3.5,4.1S5.9,6.1,3.5,5.2S0,1.1,0,1.1S2.8-0.6,5.2,0.3z"/>
		</g>
		<g id="Grupo_14" transform="translate(35.838 33.246)">
			<path id="Trazado_20" class="st0" d="M1.2,2.8C3.1,0.2,7.1,0,7.1,0s0.9,4.1-1,6.8S0.2,9.6,0.2,9.6S-0.7,5.5,1.2,2.8z"/>
		</g>
		<g id="Grupo_15" transform="translate(29.244 58.142)">
			<path id="Trazado_21" class="st0" d="M4.5,0.1C7.3-0.5,10,2,10,2S8.3,5.3,5.5,5.8S0,3.9,0,3.9S1.8,0.6,4.5,0.1z"/>
		</g>
		<g id="Grupo_16" transform="translate(40.323 63.645)">
			<path id="Trazado_22" class="st0" d="M1.9,1.6c2.1-2,5.6-1.5,5.6-1.5s0.2,3.8-1.9,5.8S0,7.4,0,7.4S-0.2,3.6,1.9,1.6z"/>
		</g>
		<g id="Grupo_17" transform="translate(55.509 53.977)">
			<path id="Trazado_23" class="st0" d="M0,5.4C0,2.4,2.8,0,2.8,0s2.7,2.4,2.7,5.4s-2.8,5.4-2.8,5.4S0,8.4,0,5.4z"/>
		</g>
		<g id="Grupo_18" transform="translate(42.212 51.854)">
			<path id="Trazado_24" class="st0" d="M2.4,0.6C4.4-0.6,7,0.4,7,0.4S6.5,3.4,4.6,4.5S0,4.7,0,4.7S0.5,1.7,2.4,0.6z"/>
		</g>
		<g id="Grupo_19" transform="translate(52.628 25.973)">
			<path id="Trazado_25" class="st0" d="M3,5.1C0.8,3.9,0,0.7,0,0.7s2.9-1.4,5.1-0.2s3,4.4,3,4.4S5.3,6.2,3,5.1z"/>
		</g>
		<g id="Grupo_20" transform="translate(79.437 23.78)">
			<path id="Trazado_26" class="st0" d="M2.9,4.9C0.8,3.8,0,0.7,0,0.7s2.8-1.3,5-0.2s2.9,4.3,2.9,4.3S5.1,6,2.9,4.9z"/>
		</g>
		<g id="Grupo_21" transform="translate(79.991 64.661)">
			<path id="Trazado_27" class="st0" d="M0.1,4.1C-0.1,2.6,0.3,1.2,1.2,0c1.2,0.7,2.2,1.9,2.6,3.2c0.1,1.4-0.2,2.9-1.1,4.1
				C1.4,6.6,0.5,5.4,0.1,4.1z"/>
		</g>
		<g id="Grupo_22" transform="translate(51.374 66.627)">
			<path id="Trazado_28" class="st0" d="M0.2,4.3C1.1,1.4,4.4,0,4.4,0s1.9,3.2,1.1,6s-4.1,4.3-4.1,4.3S-0.6,7.1,0.2,4.3z"/>
		</g>
		<g id="Grupo_23" transform="translate(72.252 64.107)">
			<path id="Trazado_29" class="st0" d="M0.2,6.5C-0.7,3.4,1.4,0,1.4,0s3.6,1.5,4.5,4.6s-1.1,6.5-1.1,6.5S1.2,9.6,0.2,6.5z"/>
		</g>
		<g id="Grupo_24" transform="translate(64.059 74.654)">
			<path id="Trazado_30" class="st0" d="M4.1,0.2c2.7-0.8,5.7,1.3,5.7,1.3S8.4,4.9,5.7,5.8S0,4.5,0,4.5S1.4,1,4.1,0.2z"/>
		</g>
		<g id="Grupo_25" transform="translate(52.79 79.118)">
			<path id="Trazado_31" class="st0" d="M7.5,0.5c3.4,1.5,4.8,6.2,4.8,6.2S8.2,9,4.8,7.5S0,1.3,0,1.3S4.1-1,7.5,0.5z"/>
		</g>
		<g id="Grupo_26" transform="translate(33.8 73.937)">
			<path id="Trazado_32" class="st0" d="M4.6,0.1c2.8-0.5,5.5,2,5.5,2S8.3,5.3,5.5,5.8S0,3.8,0,3.8S1.8,0.5,4.6,0.1z"/>
		</g>
		<g id="Grupo_27" transform="translate(44.953 79.551)">
			<path id="Trazado_33" class="st0" d="M5.4,4.7c0.6,2.9-1.6,5.9-1.6,5.9S0.7,8.8,0.1,5.9S1.7,0,1.7,0S4.8,1.7,5.4,4.7z"/>
		</g>
		<g id="Grupo_28" transform="translate(58.83 69.585)">
			<path id="Trazado_34" class="st0" d="M4.1,0.2c2.7-0.8,5.7,1.3,5.7,1.3S8.4,4.9,5.7,5.8S0,4.5,0,4.5S1.4,1,4.1,0.2z"/>
		</g>
		<g id="Grupo_29" transform="translate(69.833 48.946)">
			<path id="Trazado_35" class="st0" d="M0.9,8.4C-1,4.9,0.7,0,0.7,0s4.8,0.9,6.7,4.4s0.3,8.4,0.3,8.4S2.9,12,0.9,8.4z"/>
		</g>
		<g id="Grupo_30" transform="translate(14.038 67.675)">
			<path id="Trazado_36" class="st0" d="M6.1,0c3.4-0.1,6.3,3.4,6.3,3.4S9.8,7,6.3,7.1S0,3.7,0,3.7S2.7,0.1,6.1,0z"/>
		</g>
		<g id="Grupo_31" transform="translate(7.119 64.545)">
			<path id="Trazado_37" class="st0" d="M1.5,1.9C3.3-0.2,6.7,0,6.7,0s0.4,3.6-1.4,5.7S0,7.5,0,7.5S-0.4,3.9,1.5,1.9z"/>
		</g>
		<g id="Grupo_32" transform="translate(17.818 52.268)">
			<path id="Trazado_38" class="st0" d="M7.4,4.4c1.9,3.6,0.3,8.4,0.3,8.4S2.9,12,0.9,8.4S0.7,0,0.7,0S5.5,0.9,7.4,4.4z"/>
		</g>
		<g id="Grupo_33" transform="translate(7.028 49.98)">
			<path id="Trazado_39" class="st0" d="M6.1,6.6c-0.7,3.3-4.2,5.2-4.2,5.2s-2.4-3.3-1.8-6.6S4.3,0,4.3,0S6.8,3.3,6.1,6.6z"/>
		</g>
		<g id="Grupo_34" transform="translate(27.266 47.793)">
			<path id="Trazado_40" class="st0" d="M7.2,1.1c2.9,2,3.5,6.7,3.5,6.7S6.4,9.1,3.5,7.1S0,0.5,0,0.5S4.2-0.9,7.2,1.1z"/>
		</g>
		<g id="Grupo_35" transform="translate(14.872 44.684)">
			<path id="Trazado_41" class="st0" d="M3,0.5c2.3-1.2,5.2,0.1,5.2,0.1S7.5,4,5.2,5.2S0,5,0,5S0.7,1.7,3,0.5z"/>
		</g>
		<g id="Grupo_36" transform="translate(2.392 35.197)">
			<path id="Trazado_42" class="st0" d="M5.2,0.6C7.4,2,8,5.3,8,5.3S5,6.5,2.8,5.2S0,0.5,0,0.5S3-0.7,5.2,0.6z"/>
		</g>
		<g id="Grupo_37" transform="translate(25.96 34.208)">
			<path id="Trazado_43" class="st0" d="M4.9,4.3c0.5,2.6-1.5,5.3-1.5,5.3S0.6,7.9,0.1,5.3S1.6,0,1.6,0S4.4,1.6,4.9,4.3z"/>
		</g>
		<g id="Grupo_38" transform="translate(22.221 77.236)">
			<path id="Trazado_44" class="st0" d="M6.1,6C3.4,7.4,0,5.8,0,5.8s0.9-3.8,3.5-5.2s6.1,0.2,6.1,0.2S8.7,4.6,6.1,6z"/>
		</g>
		<g id="Grupo_39" transform="translate(14.151 74.074)">
			<path id="Trazado_45" class="st0" d="M3.6,4.8C1.7,4.8,0,2.5,0,2.5S1.5,0.1,3.5,0s3.6,2.3,3.6,2.3S5.6,4.7,3.6,4.8z"/>
		</g>
		<g id="Grupo_40" transform="translate(0.382 44.873)">
			<path id="Trazado_46" class="st0" d="M3.5,5.2C1.1,4.3,0,1.1,0,1.1s2.8-1.7,5.2-0.8s3.5,4.1,3.5,4.1S5.9,6.1,3.5,5.2z"/>
		</g>
		<g id="Grupo_41" transform="translate(39.641 44.019)">
			<path id="Trazado_47" class="st0" d="M5.8,6.5C2.7,6.6,0,3.5,0,3.5S2.4,0.1,5.6,0s5.8,3,5.8,3S9,6.4,5.8,6.5z"/>
		</g>
		<g id="Grupo_42" transform="translate(38.22 22.66)">
			<path id="Trazado_48" class="st0" d="M4.4,5.6C1.7,5.1,0,1.8,0,1.8s2.7-2.3,5.4-1.8s4.4,3.8,4.4,3.8S7.1,6.2,4.4,5.6z"/>
		</g>
		<g id="Grupo_43" transform="translate(33.102 80.312)">
			<path id="Trazado_49" class="st0" d="M6.1,3.5c1.7,2.8,0.4,6.9,0.4,6.9S2.5,9.7,0.8,6.9S0.5,0,0.5,0S4.4,0.6,6.1,3.5z"/>
		</g>
		<g id="Grupo_44" transform="translate(32.515 26.8)">
			<path id="Trazado_50" class="st0" d="M5.4,6.1c-1.5,2.5-5,3.1-5,3.1s-1.1-3.6,0.3-6.1s5-3.1,5-3.1S6.9,3.6,5.4,6.1z"/>
		</g>
		<g id="Grupo_45" transform="translate(33.975 14.045)">
			<path id="Trazado_51" class="st0" d="M5.4,6c-0.9,2.9-4.1,4.3-4.1,4.3s-1.9-3.2-1.1-6S4.4,0,4.4,0S6.3,3.2,5.4,6z"/>
		</g>
		<g id="Grupo_46" transform="translate(2.667 28.194)">
			<path id="Trazado_52" class="st0" d="M5,5C2.9,6.2,0,5,0,5s0.6-3.2,2.8-4.5s5,0,5,0S7.2,3.8,5,5z"/>
		</g>
		<g id="Grupo_47" transform="translate(44.591 37.965)">
			<path id="Trazado_53" class="st0" d="M2.3,4C0.6,3.1,0,0.5,0,0.5s2.2-1.1,4-0.2s2.3,3.4,2.3,3.4S4.1,4.9,2.3,4z"/>
		</g>
		<g id="Grupo_48" transform="translate(18.782 7.484)">
			<path id="Trazado_54" class="st0" d="M5.5,5.5c-0.1,3-2.9,5.3-2.9,5.3S-0.1,8.3,0,5.3S2.9,0,2.9,0S5.5,2.5,5.5,5.5z"/>
		</g>
		<g id="Grupo_49" transform="translate(8.225 17.328)">
			<path id="Trazado_55" class="st0" d="M6.8,1.2c2.7,2,3,6.5,3,6.5S5.7,8.8,3,6.8S0,0.3,0,0.3S4.1-0.8,6.8,1.2z"/>
		</g>
		<g id="Grupo_50" transform="translate(30.157 4.314)">
			<path id="Trazado_56" class="st0" d="M5.4,6.1C4.1,8.8,0.6,9.6,0.6,9.6s-1.4-3.5,0-6.1S5.4,0,5.4,0S6.7,3.5,5.4,6.1z"/>
		</g>
		<g id="Grupo_51" transform="translate(47.116 11.214)">
			<path id="Trazado_57" class="st0" d="M5.5,5.8C2.7,6.3,0,3.8,0,3.8s1.8-3.2,4.6-3.7s5.5,2,5.5,2S8.3,5.3,5.5,5.8z"/>
		</g>
		<g id="Grupo_52" transform="translate(22.36 15.454)">
			<path id="Trazado_58" class="st0" d="M5.7,5.8C3,6.6,0,4.5,0,4.5S1.4,1,4.1,0.2s5.7,1.3,5.7,1.3S8.4,4.9,5.7,5.8z"/>
		</g>
		<g id="Grupo_53" transform="translate(12.814 29.192)">
			<path id="Trazado_59" class="st0" d="M7.4,4.4c1.9,3.6,0.3,8.4,0.3,8.4S2.9,12,0.9,8.4S0.7,0,0.7,0S5.5,0.9,7.4,4.4z"/>
		</g>
		<g id="Grupo_54">
			<path id="Trazado_60" class="st0" d="M91,48l-0.1-0.4c0-0.2-0.2-0.3-0.3-0.3c0,0,0,0,0,0c-11.6,2.6-24.3,1.8-35.2-3.2
				c-0.2-0.1-0.3,0-0.4,0.2l-0.1,0.3c-2.5-5.9-3.8-12.3-3.7-18.7c0-0.2-0.1-0.3-0.3-0.3l-0.4,0c-0.2,0-0.3,0.1-0.3,0.3c0,0,0,0,0,0
				c-0.1,14.7,7,28.6,16.6,38.9c0,0,0,0,0.1,0.1c0.1,0.1,0.2,0.1,0.3,0c0,0,0,0,0,0l0.3-0.3c0.1-0.1,0.1-0.3,0-0.4
				c-5.2-5.5-9.4-11.9-12.3-18.8c5.4,2.4,11.2,3.9,17.1,4.4c6.2,0.6,12.4,0.2,18.5-1.2C90.9,48.4,91,48.2,91,48z"/>
			<path id="Trazado_61" class="st0" d="M75.8,47.9c-0.1,0.2,0,0.3,0.1,0.4l0.3,0.2c0,0,0.1,0,0.1,0c0.1,0,0.2-0.1,0.3-0.2
				c2.8-5.7,7.6-10.1,13.5-12.4c0.2-0.1,0.2-0.2,0.2-0.4c0-0.1-0.1-0.3-0.1-0.4c0-0.2-0.2-0.3-0.4-0.2C83.7,37.4,78.7,42,75.8,47.9z
				"/>
			<path id="Trazado_62" class="st0" d="M58.1,21.8C58.1,21.8,58.2,21.8,58.1,21.8l0.5-0.1c0.2,0,0.3-0.2,0.2-0.4
				C58.1,15,59.1,8.7,61.5,2.8c0.1-0.2,0-0.3-0.2-0.4L61,2.2c-0.2-0.1-0.3,0-0.4,0.2c-2.5,6-3.5,12.6-2.8,19.1
				C57.9,21.7,58,21.8,58.1,21.8z"/>
			<path id="Trazado_63" class="st0" d="M86,61.9c-14.2-0.9-29.6-0.7-41.4,8.8c-0.1,0.1-0.1,0.3,0,0.4l0.3,0.4
				c0.1,0.1,0.2,0.1,0.3,0.1c0,0,0.1,0,0.1-0.1c6.4-5.2,13.9-7.5,21.7-8.4C68.6,69,72.5,74,77.7,77.2c0,0,0,0,0.1,0
				c0.1,0.1,0.3,0,0.3-0.1c0,0,0,0,0,0l0.2-0.4c0.1-0.1,0.1-0.3-0.1-0.4c-5-3-8.7-7.8-10.3-13.3c6-0.5,12-0.5,18,0
				c0.2,0,0.3-0.1,0.3-0.3c0-0.2,0-0.3,0-0.5C86.3,62,86.2,61.9,86,61.9z"/>
			<path id="Trazado_64" class="st0" d="M39.2,68.9l-0.3-0.2c-0.1-0.1-0.3-0.1-0.4,0.1l-0.3,0.3c-0.1,0.1-0.1,0.3,0.1,0.4
				c3,1.7,5.7,3.9,8,6.4c-2.8,4.4-4.3,9.5-4.4,14.7c0,0,0,0.1,0,0.1c0,0.1,0.1,0.2,0.3,0.2h0.4c0.2,0,0.3-0.1,0.3-0.3
				C43,85.8,44.4,81,47,76.8c3.2,3.6,5.6,7.8,6.9,12.4c0,0.1,0.2,0.3,0.3,0.3l0.4-0.1c0.2,0,0.3-0.2,0.2-0.4
				C52.5,80.5,46.2,73.2,39.2,68.9z M54.5,89L54.5,89C54.5,89,54.5,89,54.5,89C54.5,89,54.5,89,54.5,89z"/>
			<path id="Trazado_65" class="st0" d="M39.9,65.1c0,0.2,0.1,0.3,0.3,0.3l0.4,0c0.2,0,0.3-0.1,0.3-0.3c0,0,0,0,0,0
				c0.1-14.7-7-28.6-16.6-38.9c0,0,0,0-0.1-0.1c-0.1-0.1-0.2-0.1-0.3,0c0,0,0,0,0,0l-0.3,0.3c-0.1,0.1-0.1,0.3,0,0.4
				c5.2,5.5,9.4,11.9,12.3,18.8c-5.4-2.4-11.2-3.9-17.1-4.4c-6.2-0.6-12.4-0.2-18.5,1.2C0.1,42.6,0,42.8,0,43c0,0.1,0.1,0.3,0.1,0.4
				c0,0.2,0.2,0.3,0.3,0.3c0,0,0,0,0,0c4.2-0.9,8.5-1.4,12.8-1.4c-2,5.9-6,10.9-11.5,14.1c-0.1,0.1-0.2,0.3-0.1,0.4l0.2,0.4
				c0.1,0.1,0.2,0.2,0.4,0.2c0,0,0,0,0,0c5.7-3.3,10-8.7,12.1-15c0,0,0,0,0,0c7.4,0.1,14.6,1.6,21.4,4.6c0.2,0.1,0.3,0,0.4-0.2
				l0.1-0.3C38.6,52.3,39.9,58.7,39.9,65.1z"/>
			<path id="Trazado_66" class="st0" d="M32.9,69.2C32.9,69.2,32.8,69.2,32.9,69.2l-0.5,0.1c-0.2,0-0.3,0.2-0.2,0.4
				c0.7,6.3-0.2,12.7-2.7,18.5c-0.1,0.2,0,0.3,0.2,0.4l0.4,0.2c0.2,0.1,0.3,0,0.4-0.2c2.5-6,3.5-12.6,2.8-19.1
				C33.1,69.3,33,69.2,32.9,69.2z"/>
			<path id="Trazado_67" class="st0" d="M5,29.1c14.2,0.9,29.6,0.7,41.4-8.8c0.1-0.1,0.1-0.3,0-0.4l-0.3-0.4
				c-0.1-0.1-0.2-0.1-0.3-0.1c0,0-0.1,0-0.1,0.1c-6.4,5.2-13.9,7.5-21.7,8.4C22.4,22,18.5,17,13.3,13.8c0,0,0,0-0.1,0
				c-0.1-0.1-0.3,0-0.3,0.1c0,0,0,0,0,0l-0.2,0.4c-0.1,0.1-0.1,0.3,0.1,0.4c5,3,8.7,7.8,10.3,13.3c-6,0.5-12,0.5-18,0
				c-0.2,0-0.3,0.1-0.3,0.3c0,0,0,0,0,0c0,0.2,0,0.3,0,0.5C4.7,29,4.8,29.1,5,29.1z"/>
			<path id="Trazado_68" class="st0" d="M46.2,17.3c3.4,3.4,7.6,6,12.2,7.3c4.6,1.1,9.3,1.5,14,1.1c4.3-0.2,8.7-0.8,12.9-1.7
				c0.2,0,0.3-0.2,0.2-0.4c0,0,0,0,0-0.1l-0.2-0.4c0,0,0-0.1,0-0.1c-0.1-0.1-0.2-0.1-0.3-0.1c-4.5,1-9,1.6-13.6,1.7
				c-5.8,0.2-12.1-0.1-17.4-2.9c-3.3-1.7-6.2-4-8.7-6.8l0,0c2.8-4.4,4.3-9.5,4.4-14.7c0,0,0-0.1,0-0.1c0-0.1-0.1-0.2-0.3-0.2
				c0,0,0,0,0,0h-0.4c-0.2,0-0.3,0.1-0.3,0.3c-0.1,4.9-1.5,9.8-4.1,14c-3.2-3.6-5.5-7.8-6.9-12.4c0-0.1-0.2-0.3-0.3-0.3L37,1.7
				c-0.2,0-0.3,0.2-0.2,0.4C38.6,7.9,41.9,13.1,46.2,17.3z"/>
			<path id="Trazado_69" class="st0" d="M33.5,66.7c0-0.1-0.1-0.2-0.2-0.3c-5.9-2.6-12.4-3.4-18.7-4c-3.7-0.4-7.4-0.2-10.9,0.6
				c-0.2,0-0.3,0.2-0.2,0.4l0.1,0.4c0,0.2,0.2,0.3,0.3,0.3c0,0,0,0,0,0c4.9-1.2,9.9-0.7,14.8-0.1c4.6,0.5,9.1,1.5,13.4,3.1
				c-5.3,3.6-10.1,8.2-13.1,14.1c-0.1,0.1-0.1,0.3,0.1,0.4l0.3,0.2c0.1,0.1,0.3,0.1,0.4-0.1c0,0,0,0,0,0c3.2-6.1,8.2-10.8,13.8-14.4
				C33.6,67.1,33.7,66.9,33.5,66.7C33.6,66.8,33.5,66.7,33.5,66.7z"/>
		</g>
		<g id="Grupo_55" transform="translate(47.533 45.805)">
			<path id="Trazado_70" class="st0" d="M6.7,0.1C1.7,3.5,0.5,9.8,0,15.7c0,0.3,0.2,0.6,0.5,0.7c0.3,0,0.6-0.2,0.7-0.5c0,0,0,0,0,0
				c0.5-5.4,1.4-11.4,6-14.6C7.9,0.8,7.4-0.3,6.7,0.1L6.7,0.1z"/>
		</g>
		<g id="Grupo_56" transform="translate(68.803 23.59)">
			<path id="Trazado_71" class="st0" d="M0,0.6c1.6,4,5.4,5.5,9.1,6.5C9.7,7.3,10,6.5,9.5,6.3C6,5.4,2.3,4,0.8,0.2
				C0.6-0.3-0.2,0.1,0,0.6L0,0.6z"/>
		</g>
	</g>
</g>
</svg>
