<svg xmlns="http://www.w3.org/2000/svg" width="91" height="91" viewBox="0 0 91 91">
  <g id="Grupo_64" data-name="Grupo 64" transform="translate(-122.232 -1155.968)">
    <g id="Grupo_57" data-name="Grupo 57" transform="translate(122.232 1155.968)">
      <g id="Grupo_2" data-name="Grupo 2" transform="translate(50.988 0.38)">
        <path id="Trazado_8" data-name="Trazado 8" d="M225.668,1163.6c-1.654-2.847-.391-6.856-.391-6.856s3.943.606,5.6,3.452.391,6.856.391,6.856S227.321,1166.446,225.668,1163.6Z" transform="translate(-224.815 -1156.744)" fill="#541f5c"/>
      </g>
      <g id="Grupo_3" data-name="Grupo 3" transform="translate(40.488 0.878)">
        <path id="Trazado_9" data-name="Trazado 9" d="M203.82,1163.682c-.616-2.919,1.554-5.919,1.554-5.919s3.169,1.732,3.784,4.652-1.554,5.919-1.554,5.919S204.436,1166.6,203.82,1163.682Z" transform="translate(-203.71 -1157.763)" fill="#541f5c"/>
      </g>
      <g id="Grupo_4" data-name="Grupo 4" transform="translate(66.343 12.952)">
        <path id="Trazado_10" data-name="Trazado 10" d="M263.136,1190.74c-2.384,3.228-7.268,3.392-7.268,3.392s-1.02-5.07,1.364-8.3,7.268-3.392,7.268-3.392S265.52,1187.511,263.136,1190.74Z" transform="translate(-255.652 -1182.442)" fill="#541f5c"/>
      </g>
      <g id="Grupo_5" data-name="Grupo 5" transform="translate(62.559 27.502)">
        <path id="Trazado_11" data-name="Trazado 11" d="M248.988,1224.44c-1.932-3.552-.25-8.419-.25-8.419s4.814.891,6.746,4.443.25,8.419.25,8.419S250.919,1227.991,248.988,1224.44Z" transform="translate(-248.059 -1216.021)" fill="#541f5c"/>
      </g>
      <g id="Grupo_6" data-name="Grupo 6" transform="translate(77.761 29.199)">
        <path id="Trazado_12" data-name="Trazado 12" d="M278.6,1224.881c.681-3.264,4.218-5.21,4.218-5.21s2.433,3.347,1.752,6.612-4.219,5.21-4.219,5.21S277.916,1228.146,278.6,1224.881Z" transform="translate(-278.477 -1219.671)" fill="#541f5c"/>
      </g>
      <g id="Grupo_7" data-name="Grupo 7" transform="translate(53.111 34.995)">
        <path id="Trazado_13" data-name="Trazado 13" d="M232.482,1239.232c-2.934-2.009-3.475-6.656-3.475-6.656s4.215-1.39,7.148.618,3.475,6.656,3.475,6.656S235.415,1241.241,232.482,1239.232Z" transform="translate(-229.007 -1232.107)" fill="#541f5c"/>
      </g>
      <g id="Grupo_8" data-name="Grupo 8" transform="translate(67.902 40.638)">
        <path id="Trazado_14" data-name="Trazado 14" d="M264.029,1249.4c-2.272,1.209-5.219-.149-5.219-.149s.736-3.318,3.007-4.527,5.219.149,5.219.149S266.3,1248.193,264.029,1249.4Z" transform="translate(-258.81 -1244.225)" fill="#541f5c"/>
      </g>
      <g id="Grupo_9" data-name="Grupo 9" transform="translate(80.626 49.983)">
        <path id="Trazado_15" data-name="Trazado 15" d="M287.1,1269.71c-2.2-1.343-2.762-4.7-2.762-4.7s3.014-1.179,5.218.164,2.763,4.7,2.763,4.7S289.3,1271.052,287.1,1269.71Z" transform="translate(-284.334 -1264.531)" fill="#541f5c"/>
      </g>
      <g id="Grupo_10" data-name="Grupo 10" transform="translate(78.714 57.482)">
        <path id="Trazado_16" data-name="Trazado 16" d="M286.075,1286.517c-2.627.976-5.649-.936-5.649-.936s1.237-3.495,3.864-4.471,5.649.935,5.649.935S288.7,1285.541,286.075,1286.517Z" transform="translate(-280.426 -1280.832)" fill="#541f5c"/>
      </g>
      <g id="Grupo_11" data-name="Grupo 11" transform="translate(60.046 47.218)">
        <path id="Trazado_17" data-name="Trazado 17" d="M243.162,1264.1c-.5-2.644,1.515-5.3,1.515-5.3s2.822,1.63,3.32,4.274-1.515,5.3-1.515,5.3S243.661,1266.748,243.162,1264.1Z" transform="translate(-243.083 -1258.804)" fill="#541f5c"/>
      </g>
      <g id="Grupo_12" data-name="Grupo 12" transform="translate(59.172 7.192)">
        <path id="Trazado_18" data-name="Trazado 18" d="M244.763,1171.225c2.653-1.377,6.062.237,6.062.237s-.892,3.846-3.545,5.223-6.063-.238-6.063-.238S242.11,1172.6,244.763,1171.225Z" transform="translate(-241.218 -1170.669)" fill="#541f5c"/>
      </g>
      <g id="Grupo_13" data-name="Grupo 13" transform="translate(81.953 40.673)">
        <path id="Trazado_19" data-name="Trazado 19" d="M292.21,1244.552c2.393.909,3.5,4.109,3.5,4.109s-2.771,1.725-5.164.816-3.5-4.109-3.5-4.109S289.817,1243.643,292.21,1244.552Z" transform="translate(-287.046 -1244.288)" fill="#541f5c"/>
      </g>
      <g id="Grupo_14" data-name="Grupo 14" transform="translate(35.838 33.246)">
        <path id="Trazado_20" data-name="Trazado 20" d="M195.566,1231.219c1.913-2.657,5.894-2.842,5.894-2.842s.879,4.122-1.035,6.779-5.894,2.842-5.894,2.842S193.652,1233.876,195.566,1231.219Z" transform="translate(-194.329 -1228.377)" fill="#541f5c"/>
      </g>
      <g id="Grupo_15" data-name="Grupo 15" transform="translate(29.244 58.142)">
        <path id="Trazado_21" data-name="Trazado 21" d="M185.566,1282.333c2.774-.535,5.512,1.887,5.512,1.887s-1.76,3.289-4.534,3.823-5.512-1.887-5.512-1.887S182.791,1282.868,185.566,1282.333Z" transform="translate(-181.031 -1282.256)" fill="#541f5c"/>
      </g>
      <g id="Grupo_16" data-name="Grupo 16" transform="translate(40.323 63.645)">
        <path id="Trazado_22" data-name="Trazado 22" d="M205.271,1295.935c2.08-2.02,5.613-1.517,5.613-1.517s.16,3.778-1.919,5.8-5.613,1.517-5.613,1.517S203.191,1297.954,205.271,1295.935Z" transform="translate(-203.349 -1294.362)" fill="#541f5c"/>
      </g>
      <g id="Grupo_17" data-name="Grupo 17" transform="translate(55.509 53.977)">
        <path id="Trazado_23" data-name="Trazado 23" d="M233.942,1279.031c.023-2.991,2.775-5.393,2.775-5.393s2.717,2.448,2.7,5.439-2.776,5.393-2.776,5.393S233.919,1282.022,233.942,1279.031Z" transform="translate(-233.942 -1273.638)" fill="#541f5c"/>
      </g>
      <g id="Grupo_18" data-name="Grupo 18" transform="translate(42.212 51.854)">
        <path id="Trazado_24" data-name="Trazado 24" d="M209.584,1269.091c1.929-1.165,4.559-.125,4.559-.125s-.5,2.93-2.427,4.1-4.559.125-4.559.125S207.655,1270.257,209.584,1269.091Z" transform="translate(-207.157 -1268.539)" fill="#541f5c"/>
      </g>
      <g id="Grupo_19" data-name="Grupo 19" transform="translate(52.628 25.973)">
        <path id="Trazado_25" data-name="Trazado 25" d="M231.11,1217.436c-2.244-1.139-3.021-4.371-3.021-4.371s2.861-1.385,5.1-.246,3.02,4.371,3.02,4.371S233.353,1218.575,231.11,1217.436Z" transform="translate(-228.089 -1212.369)" fill="#541f5c"/>
      </g>
      <g id="Grupo_20" data-name="Grupo 20" transform="translate(79.437 23.78)">
        <path id="Trazado_26" data-name="Trazado 26" d="M284.846,1212.542c-2.186-1.11-2.944-4.26-2.944-4.26s2.788-1.35,4.975-.24,2.944,4.26,2.944,4.26S287.033,1213.652,284.846,1212.542Z" transform="translate(-281.902 -1207.603)" fill="#541f5c"/>
      </g>
      <g id="Grupo_21" data-name="Grupo 21" transform="translate(79.991 64.661)">
        <path id="Trazado_27" data-name="Trazado 27" d="M283.107,1300.633a5.96,5.96,0,0,1,1.1-4.074,5.618,5.618,0,0,1,2.588,3.229,5.959,5.959,0,0,1-1.1,4.074A5.617,5.617,0,0,1,283.107,1300.633Z" transform="translate(-283.036 -1296.559)" fill="#541f5c"/>
      </g>
      <g id="Grupo_22" data-name="Grupo 22" transform="translate(51.374 66.627)">
        <path id="Trazado_28" data-name="Trazado 28" d="M225.834,1308.393c.85-2.852,4.147-4.29,4.147-4.29s1.919,3.187,1.069,6.039-4.147,4.29-4.147,4.29S224.984,1311.245,225.834,1308.393Z" transform="translate(-225.617 -1304.103)" fill="#541f5c"/>
      </g>
      <g id="Grupo_23" data-name="Grupo 23" transform="translate(72.252 64.107)">
        <path id="Trazado_29" data-name="Trazado 29" d="M267.458,1302.271c-.928-3.072,1.129-6.517,1.129-6.517s3.561,1.535,4.489,4.607-1.128,6.517-1.128,6.517S268.386,1305.343,267.458,1302.271Z" transform="translate(-267.217 -1295.754)" fill="#541f5c"/>
      </g>
      <g id="Grupo_24" data-name="Grupo 24" transform="translate(64.059 74.654)">
        <path id="Trazado_30" data-name="Trazado 30" d="M255.187,1319.658c2.709-.83,5.664,1.286,5.664,1.286s-1.437,3.46-4.146,4.29-5.664-1.286-5.664-1.286S252.477,1320.487,255.187,1319.658Z" transform="translate(-251.04 -1319.465)" fill="#541f5c"/>
      </g>
      <g id="Grupo_25" data-name="Grupo 25" transform="translate(52.79 79.118)">
        <path id="Trazado_31" data-name="Trazado 31" d="M235.847,1329.094c3.4,1.49,4.8,6.2,4.8,6.2s-4.12,2.293-7.522.8-4.8-6.2-4.8-6.2S232.445,1327.6,235.847,1329.094Z" transform="translate(-228.325 -1328.591)" fill="#541f5c"/>
      </g>
      <g id="Grupo_26" data-name="Grupo 26" transform="translate(33.8 73.937)">
        <path id="Trazado_32" data-name="Trazado 32" d="M194.8,1318.058c2.785-.47,5.472,2.015,5.472,2.015s-1.828,3.247-4.612,3.716-5.472-2.015-5.472-2.015S192.019,1318.529,194.8,1318.058Z" transform="translate(-190.191 -1317.999)" fill="#541f5c"/>
      </g>
      <g id="Grupo_27" data-name="Grupo 27" transform="translate(44.953 79.551)">
        <path id="Trazado_33" data-name="Trazado 33" d="M218.146,1334.126c.616,2.919-1.554,5.92-1.554,5.92s-3.168-1.733-3.784-4.652,1.554-5.919,1.554-5.919S217.53,1331.207,218.146,1334.126Z" transform="translate(-212.697 -1329.475)" fill="#541f5c"/>
      </g>
      <g id="Grupo_28" data-name="Grupo 28" transform="translate(58.83 69.585)">
        <path id="Trazado_34" data-name="Trazado 34" d="M244.671,1307.315c2.709-.83,5.664,1.286,5.664,1.286s-1.437,3.46-4.146,4.29-5.664-1.285-5.664-1.285S241.962,1308.144,244.671,1307.315Z" transform="translate(-240.525 -1307.122)" fill="#541f5c"/>
      </g>
      <g id="Grupo_29" data-name="Grupo 29" transform="translate(69.833 48.946)">
        <path id="Trazado_35" data-name="Trazado 35" d="M263.2,1271.263c-1.932-3.552-.25-8.419-.25-8.419s4.814.891,6.746,4.443.25,8.419.25,8.419S265.134,1274.814,263.2,1271.263Z" transform="translate(-262.274 -1262.844)" fill="#541f5c"/>
      </g>
      <g id="Grupo_30" data-name="Grupo 30" transform="translate(14.038 67.675)">
        <path id="Trazado_36" data-name="Trazado 36" d="M156.583,1303.094c3.444-.1,6.331,3.354,6.331,3.354s-2.7,3.629-6.14,3.734-6.331-3.354-6.331-3.354S153.139,1303.2,156.583,1303.094Z" transform="translate(-150.443 -1303.091)" fill="#541f5c"/>
      </g>
      <g id="Grupo_31" data-name="Grupo 31" transform="translate(7.119 64.545)">
        <path id="Trazado_37" data-name="Trazado 37" d="M138.267,1298.192c1.847-2.075,5.241-1.856,5.241-1.856s.4,3.583-1.447,5.658-5.241,1.856-5.241,1.856S136.42,1300.267,138.267,1298.192Z" transform="translate(-136.783 -1296.329)" fill="#541f5c"/>
      </g>
      <g id="Grupo_32" data-name="Grupo 32" transform="translate(17.818 52.268)">
        <path id="Trazado_38" data-name="Trazado 38" d="M165.494,1274.54c1.932,3.552.25,8.419.25,8.419s-4.814-.891-6.746-4.443-.25-8.419-.25-8.419S163.562,1270.988,165.494,1274.54Z" transform="translate(-158.07 -1270.097)" fill="#541f5c"/>
      </g>
      <g id="Grupo_33" data-name="Grupo 33" transform="translate(7.028 49.98)">
        <path id="Trazado_39" data-name="Trazado 39" d="M142.688,1271.622c-.681,3.264-4.218,5.21-4.218,5.21s-2.433-3.348-1.752-6.612,4.218-5.21,4.218-5.21S143.369,1268.357,142.688,1271.622Z" transform="translate(-136.597 -1265.01)" fill="#541f5c"/>
      </g>
      <g id="Grupo_34" data-name="Grupo 34" transform="translate(27.266 47.793)">
        <path id="Trazado_40" data-name="Trazado 40" d="M184.2,1261.039c2.934,2.009,3.475,6.656,3.475,6.656s-4.215,1.391-7.149-.618-3.475-6.656-3.475-6.656S181.264,1259.03,184.2,1261.039Z" transform="translate(-177.049 -1259.952)" fill="#541f5c"/>
      </g>
      <g id="Grupo_35" data-name="Grupo 35" transform="translate(14.872 44.684)">
        <path id="Trazado_41" data-name="Trazado 41" d="M155.152,1253.513c2.272-1.209,5.219.149,5.219.149s-.736,3.318-3.007,4.526-5.219-.148-5.219-.148S152.881,1254.722,155.152,1253.513Z" transform="translate(-152.145 -1253.012)" fill="#541f5c"/>
      </g>
      <g id="Grupo_36" data-name="Grupo 36" transform="translate(2.392 35.197)">
        <path id="Trazado_42" data-name="Trazado 42" d="M132.341,1233.058c2.2,1.343,2.763,4.7,2.763,4.7s-3.015,1.18-5.219-.163-2.763-4.7-2.763-4.7S130.137,1231.715,132.341,1233.058Z" transform="translate(-127.122 -1232.416)" fill="#541f5c"/>
      </g>
      <g id="Grupo_37" data-name="Grupo 37" transform="translate(25.96 34.208)">
        <path id="Trazado_43" data-name="Trazado 43" d="M179.394,1234.745c.5,2.644-1.515,5.3-1.515,5.3s-2.822-1.63-3.321-4.274,1.515-5.3,1.515-5.3S178.9,1232.1,179.394,1234.745Z" transform="translate(-174.479 -1230.471)" fill="#541f5c"/>
      </g>
      <g id="Grupo_38" data-name="Grupo 38" transform="translate(22.221 77.236)">
        <path id="Trazado_44" data-name="Trazado 44" d="M172.977,1330.759c-2.653,1.377-6.063-.237-6.063-.237s.892-3.846,3.545-5.223,6.062.238,6.062.238S175.629,1329.382,172.977,1330.759Z" transform="translate(-166.914 -1324.743)" fill="#541f5c"/>
      </g>
      <g id="Grupo_39" data-name="Grupo 39" transform="translate(14.151 74.074)">
        <path id="Trazado_45" data-name="Trazado 45" d="M154.333,1323.042c-1.969.061-3.631-2.271-3.631-2.271s1.531-2.43,3.5-2.49,3.631,2.271,3.631,2.271S156.3,1322.982,154.333,1323.042Z" transform="translate(-150.702 -1318.28)" fill="#541f5c"/>
      </g>
      <g id="Grupo_40" data-name="Grupo 40" transform="translate(0.382 44.873)">
        <path id="Trazado_46" data-name="Trazado 46" d="M126.514,1258.6c-2.393-.909-3.5-4.109-3.5-4.109s2.771-1.725,5.164-.816,3.5,4.109,3.5,4.109S128.906,1259.507,126.514,1258.6Z" transform="translate(-123.013 -1253.408)" fill="#541f5c"/>
      </g>
      <g id="Grupo_41" data-name="Grupo 41" transform="translate(39.641 44.019)">
        <path id="Trazado_47" data-name="Trazado 47" d="M207.724,1258.108c-3.15.115-5.809-3.033-5.809-3.033s2.448-3.335,5.6-3.45,5.809,3.032,5.809,3.032S210.874,1257.992,207.724,1258.108Z" transform="translate(-201.915 -1251.622)" fill="#541f5c"/>
      </g>
      <g id="Grupo_42" data-name="Grupo 42" transform="translate(38.22 22.66)">
        <path id="Trazado_48" data-name="Trazado 48" d="M203.458,1210.828c-2.7-.563-4.375-3.8-4.375-3.8s2.7-2.323,5.4-1.76,4.374,3.8,4.374,3.8S206.158,1211.391,203.458,1210.828Z" transform="translate(-199.083 -1205.183)" fill="#541f5c"/>
      </g>
      <g id="Grupo_43" data-name="Grupo 43" transform="translate(33.102 80.312)">
        <path id="Trazado_49" data-name="Trazado 49" d="M194.888,1334.483c1.654,2.846.391,6.856.391,6.856s-3.944-.606-5.6-3.453-.391-6.855-.391-6.855S193.235,1331.637,194.888,1334.483Z" transform="translate(-188.83 -1331.031)" fill="#541f5c"/>
      </g>
      <g id="Grupo_44" data-name="Grupo 44" transform="translate(32.515 26.8)">
        <path id="Trazado_50" data-name="Trazado 50" d="M193.078,1220.455c-1.474,2.549-5,3.1-5,3.1s-1.137-3.584.337-6.134,5-3.1,5-3.1S194.552,1217.905,193.078,1220.455Z" transform="translate(-187.659 -1214.321)" fill="#541f5c"/>
      </g>
      <g id="Grupo_45" data-name="Grupo 45" transform="translate(33.975 14.045)">
        <path id="Trazado_51" data-name="Trazado 51" d="M196.036,1189.669c-.85,2.852-4.147,4.29-4.147,4.29s-1.919-3.187-1.069-6.039,4.147-4.289,4.147-4.289S196.886,1186.816,196.036,1189.669Z" transform="translate(-190.603 -1183.63)" fill="#541f5c"/>
      </g>
      <g id="Grupo_46" data-name="Grupo 46" transform="translate(2.667 28.194)">
        <path id="Trazado_52" data-name="Trazado 52" d="M132.732,1222.2c-2.163,1.235-5.048.008-5.048.008s.623-3.23,2.786-4.465,5.048-.008,5.048-.008S134.9,1220.968,132.732,1222.2Z" transform="translate(-127.684 -1217.195)" fill="#541f5c"/>
      </g>
      <g id="Grupo_47" data-name="Grupo 47" transform="translate(44.591 37.965)">
        <path id="Trazado_53" data-name="Trazado 53" d="M214.282,1242.3c-1.743-.905-2.326-3.434-2.326-3.434s2.241-1.061,3.984-.156,2.326,3.434,2.326,3.434S216.025,1243.2,214.282,1242.3Z" transform="translate(-211.956 -1238.343)" fill="#541f5c"/>
      </g>
      <g id="Grupo_48" data-name="Grupo 48" transform="translate(18.782 7.484)">
        <path id="Trazado_54" data-name="Trazado 54" d="M165.5,1176.754c-.074,2.99-2.869,5.338-2.869,5.338s-2.674-2.5-2.6-5.49,2.869-5.338,2.869-5.338S165.574,1173.764,165.5,1176.754Z" transform="translate(-160.029 -1171.264)" fill="#541f5c"/>
      </g>
      <g id="Grupo_49" data-name="Grupo 49" transform="translate(8.225 17.328)">
        <path id="Trazado_55" data-name="Trazado 55" d="M145.807,1194.88c2.707,2.037,3.038,6.473,3.038,6.473s-4.057,1.134-6.763-.9-3.038-6.473-3.038-6.473S143.1,1192.843,145.807,1194.88Z" transform="translate(-139.044 -1193.662)" fill="#541f5c"/>
      </g>
      <g id="Grupo_50" data-name="Grupo 50" transform="translate(30.157 4.314)">
        <path id="Trazado_56" data-name="Trazado 56" d="M188.33,1170.929c-1.313,2.647-4.8,3.442-4.8,3.442s-1.356-3.5-.044-6.145,4.8-3.442,4.8-3.442S189.643,1168.282,188.33,1170.929Z" transform="translate(-182.916 -1164.785)" fill="#541f5c"/>
      </g>
      <g id="Grupo_51" data-name="Grupo 51" transform="translate(47.116 11.214)">
        <path id="Trazado_57" data-name="Trazado 57" d="M222.438,1184.679c-2.785.47-5.472-2.015-5.472-2.015s1.828-3.247,4.613-3.716,5.472,2.015,5.472,2.015S225.223,1184.209,222.438,1184.679Z" transform="translate(-216.966 -1178.888)" fill="#541f5c"/>
      </g>
      <g id="Grupo_52" data-name="Grupo 52" transform="translate(22.36 15.454)">
        <path id="Trazado_58" data-name="Trazado 58" d="M172.857,1195.305c-2.709.829-5.664-1.286-5.664-1.286s1.437-3.461,4.146-4.29,5.664,1.286,5.664,1.286S175.566,1194.476,172.857,1195.305Z" transform="translate(-167.193 -1189.537)" fill="#541f5c"/>
      </g>
      <g id="Grupo_53" data-name="Grupo 53" transform="translate(12.814 29.192)">
        <path id="Trazado_59" data-name="Trazado 59" d="M155.847,1224.154c1.932,3.552.25,8.419.25,8.419s-4.814-.891-6.746-4.443-.25-8.419-.25-8.419S153.915,1220.6,155.847,1224.154Z" transform="translate(-148.423 -1219.711)" fill="#541f5c"/>
      </g>
      <g id="Grupo_54" data-name="Grupo 54">
        <path id="Trazado_60" data-name="Trazado 60" d="M262.834,1236.094l-.083-.408a.3.3,0,0,0-.344-.251c-11.591,2.565-24.263,1.759-35.2-3.225a.3.3,0,0,0-.379.185l-.113.273a48.281,48.281,0,0,1-3.746-18.686.313.313,0,0,0-.269-.339l-.434-.008a.3.3,0,0,0-.319.285c-.137,14.726,7.032,28.591,16.578,38.86a.323.323,0,0,0,.061.051.236.236,0,0,0,.355-.013l.308-.325a.331.331,0,0,0,.036-.441,65.073,65.073,0,0,1-12.338-18.827,54.22,54.22,0,0,0,17.146,4.384,61.369,61.369,0,0,0,18.509-1.15A.317.317,0,0,0,262.834,1236.094Z" transform="translate(-171.84 -1188.061)" fill="#541f5c"/>
        <path id="Trazado_61" data-name="Trazado 61" d="M274.377,1245.316a.328.328,0,0,0,.114.426l.349.192a.278.278,0,0,0,.146.036.258.258,0,0,0,.255-.156,25.037,25.037,0,0,1,13.515-12.364.322.322,0,0,0,.2-.389q-.064-.2-.127-.395a.3.3,0,0,0-.367-.211A26.081,26.081,0,0,0,274.377,1245.316Z" transform="translate(-198.604 -1197.437)" fill="#541f5c"/>
        <path id="Trazado_62" data-name="Trazado 62" d="M238.72,1180.062a.3.3,0,0,0,.094,0l.39-.052a.318.318,0,0,0,.237-.365,37.378,37.378,0,0,1,2.7-18.529.326.326,0,0,0-.174-.4l-.358-.174a.3.3,0,0,0-.38.184,38.51,38.51,0,0,0-2.755,19.088A.254.254,0,0,0,238.72,1180.062Z" transform="translate(-180.612 -1158.293)" fill="#541f5c"/>
        <path id="Trazado_63" data-name="Trazado 63" d="M252.016,1294.02c-14.2-.927-29.551-.724-41.4,8.788a.332.332,0,0,0-.036.441l.265.365a.247.247,0,0,0,.322.089.311.311,0,0,0,.094-.051c6.423-5.152,13.909-7.5,21.669-8.413a24.3,24.3,0,0,0,10.774,14.1.323.323,0,0,0,.071.032.233.233,0,0,0,.34-.107l.193-.364a.331.331,0,0,0-.071-.436,23.286,23.286,0,0,1-10.312-13.338,108.607,108.607,0,0,1,18.013-.026.306.306,0,0,0,.32-.285q.013-.23.027-.46A.313.313,0,0,0,252.016,1294.02Z" transform="translate(-166.003 -1232.167)" fill="#541f5c"/>
        <path id="Trazado_64" data-name="Trazado 64" d="M199.889,1307.51l-.268-.151a.3.3,0,0,0-.411.075l-.257.327a.326.326,0,0,0,.07.436,33.708,33.708,0,0,1,7.98,6.4,28.522,28.522,0,0,0-4.386,14.659.368.368,0,0,0,.011.093.253.253,0,0,0,.258.246l.394,0a.306.306,0,0,0,.319-.285,27.471,27.471,0,0,1,4.1-13.941,32.877,32.877,0,0,1,6.935,12.37c.043.149.178.3.344.251l.377-.118a.316.316,0,0,0,.237-.365C213.2,1319.148,206.907,1311.791,199.889,1307.51ZM215.21,1327.6h0c0,.006,0,.011,0,.017S215.21,1327.6,215.21,1327.6Z" transform="translate(-160.712 -1238.601)" fill="#541f5c"/>
        <path id="Trazado_65" data-name="Trazado 65" d="M162.107,1253.865a.312.312,0,0,0,.269.339l.434.008a.3.3,0,0,0,.319-.285c.137-14.727-7.032-28.591-16.578-38.86a.333.333,0,0,0-.061-.051.236.236,0,0,0-.355.013l-.308.325a.332.332,0,0,0-.036.441,65.079,65.079,0,0,1,12.338,18.827,54.227,54.227,0,0,0-17.146-4.383,61.375,61.375,0,0,0-18.51,1.15.317.317,0,0,0-.237.365c.028.136.055.272.083.408a.3.3,0,0,0,.344.251,60.192,60.192,0,0,1,12.781-1.419,25.663,25.663,0,0,1-11.452,14.094.327.327,0,0,0-.14.417l.183.37a.292.292,0,0,0,.393.149,26.763,26.763,0,0,0,12.054-15.006.167.167,0,0,0,0-.017,53.507,53.507,0,0,1,21.381,4.638.3.3,0,0,0,.38-.185l.113-.273A48.282,48.282,0,0,1,162.107,1253.865Z" transform="translate(-122.232 -1188.787)" fill="#541f5c"/>
        <path id="Trazado_66" data-name="Trazado 66" d="M184.961,1308.374a.284.284,0,0,0-.094,0l-.39.052a.318.318,0,0,0-.236.365,37.383,37.383,0,0,1-2.7,18.529.325.325,0,0,0,.174.4l.358.174a.3.3,0,0,0,.38-.185,38.507,38.507,0,0,0,2.755-19.087A.254.254,0,0,0,184.961,1308.374Z" transform="translate(-152.069 -1239.143)" fill="#541f5c"/>
        <path id="Trazado_67" data-name="Trazado 67" d="M132.145,1198.379c14.2.928,29.551.724,41.4-8.788a.332.332,0,0,0,.036-.441l-.265-.365a.246.246,0,0,0-.321-.089.306.306,0,0,0-.094.051c-6.423,5.152-13.909,7.5-21.669,8.413a24.3,24.3,0,0,0-10.774-14.1.3.3,0,0,0-.071-.031.233.233,0,0,0-.34.106l-.193.364a.332.332,0,0,0,.07.437,23.282,23.282,0,0,1,10.312,13.338,108.673,108.673,0,0,1-18.013.026.3.3,0,0,0-.319.285c-.009.154-.018.307-.027.461A.313.313,0,0,0,132.145,1198.379Z" transform="translate(-127.157 -1169.232)" fill="#541f5c"/>
        <path id="Trazado_68" data-name="Trazado 68" d="M204.181,1173.22a27.647,27.647,0,0,0,12.225,7.268,45.906,45.906,0,0,0,14.005,1.127,81.332,81.332,0,0,0,12.919-1.74.319.319,0,0,0,.213-.442l-.187-.386a.333.333,0,0,0-.049-.073.254.254,0,0,0-.272-.1,79.427,79.427,0,0,1-13.557,1.749c-5.823.223-12.1-.143-17.433-2.853a31.566,31.566,0,0,1-8.736-6.77l.01-.013a28.524,28.524,0,0,0,4.4-14.675.352.352,0,0,0-.011-.093.252.252,0,0,0-.258-.246l-.393,0a.305.305,0,0,0-.319.285,27.474,27.474,0,0,1-4.119,13.971,33.256,33.256,0,0,1-6.916-12.4c-.043-.149-.178-.3-.344-.251l-.378.118a.317.317,0,0,0-.237.365A35.951,35.951,0,0,0,204.181,1173.22Z" transform="translate(-157.941 -1155.968)" fill="#541f5c"/>
        <path id="Trazado_69" data-name="Trazado 69" d="M159.239,1298.49a.34.34,0,0,0-.195-.281c-5.9-2.625-12.413-3.433-18.734-4.045a34.153,34.153,0,0,0-10.95.556.316.316,0,0,0-.237.365l.092.406a.3.3,0,0,0,.344.251c4.9-1.169,9.872-.708,14.81-.059a53.655,53.655,0,0,1,13.39,3.1c-5.3,3.622-10.088,8.16-13.143,14.09-.068.134-.082.35.071.437l.347.2a.289.289,0,0,0,.411-.075c3.164-6.141,8.214-10.764,13.77-14.4A.329.329,0,0,0,159.239,1298.49Z" transform="translate(-125.748 -1231.792)" fill="#541f5c"/>
      </g>
      <g id="Grupo_55" data-name="Grupo 55" transform="translate(47.533 45.805)">
        <path id="Trazado_70" data-name="Trazado 70" d="M224.567,1256.382c-5.048,3.439-6.217,9.668-6.712,15.6a.591.591,0,1,0,1.176.108c.451-5.4,1.395-11.407,6.042-14.574.63-.43.134-1.568-.506-1.132Z" transform="translate(-217.852 -1256.284)" fill="#541f5c"/>
      </g>
      <g id="Grupo_56" data-name="Grupo 56" transform="translate(68.803 23.59)">
        <path id="Trazado_71" data-name="Trazado 71" d="M260.2,1207.866c1.645,3.963,5.439,5.491,9.142,6.519.5.14.787-.667.282-.807-3.493-.971-7.126-2.314-8.69-6.081-.211-.507-.944-.139-.733.369Z" transform="translate(-260.167 -1207.254)" fill="#541f5c"/>
      </g>
    </g>
  </g>
</svg>
